<?xml version="1.0" encoding="UTF-8" standalone="no"?>
<!-- Created with Inkscape (http://www.inkscape.org/) -->

<svg
   width="130mm"
   height="130mm"
   viewBox="0 0 130.00001 130.00004"
   style="background-color:#ffffff"
   version="1.1"
   id="svg1"
   xml:space="preserve"
   sodipodi:docname="logo_x_bimi.svg"
   inkscape:export-filename="logo_bimi.svg"
   inkscape:export-xdpi="96"
   inkscape:export-ydpi="96"
   inkscape:version="1.4.3 (0d15f75, 2025-12-25)"
   xmlns:inkscape="http://www.inkscape.org/namespaces/inkscape"
   xmlns:sodipodi="http://sodipodi.sourceforge.net/DTD/sodipodi-0.dtd"
   xmlns="http://www.w3.org/2000/svg"
   xmlns:svg="http://www.w3.org/2000/svg"><sodipodi:namedview
     id="namedview1"
     pagecolor="#ffffff"
     bordercolor="#000000"
     borderopacity="0.25"
     inkscape:showpageshadow="2"
     inkscape:pageopacity="0.0"
     inkscape:pagecheckerboard="0"
     inkscape:deskcolor="#d1d1d1"
     inkscape:document-units="mm"
     inkscape:export-bgcolor="#ffffffff"
     inkscape:zoom="2.0409521"
     inkscape:cx="248.90344"
     inkscape:cy="172.22354"
     inkscape:window-width="1920"
     inkscape:window-height="991"
     inkscape:window-x="-9"
     inkscape:window-y="-9"
     inkscape:window-maximized="1"
     inkscape:current-layer="svg1" /><defs
     id="defs1" /><rect x="-10" y="-10" width="150" height="150" fill="#ffffff" style="fill:#ffffff;fill-opacity:1" id="favicon-bg" /><path
     id="rect1"
     style="fill:#234165;stroke:#234165;stroke-width:0.20104"
     d="M 23.354838,85.505685 H 64.904803 V 96.662547 H 23.354838 Z" /><path
     id="rect1-5"
     style="fill:#c7a000;stroke:#c7a000;stroke-width:0.20104"
     d="m 65.10052,85.505685 h 41.54996 V 96.662547 H 65.10052 Z" /><path
     id="path2"
     style="fill:#c7a000;fill-opacity:1;stroke:#c7a000;stroke-width:0.402079;stroke-linecap:square;stroke-dasharray:none;stroke-opacity:1"
     d="m 94.731939,58.971313 30.854021,-26.91809 -18.16701,48.78055 z" /><path
     id="path3"
     style="fill:#234165;fill-opacity:1;stroke:#1d3752;stroke-width:0.402079;stroke-linecap:square;stroke-dasharray:none;stroke-opacity:1"
     d="M 35.105556,58.940974 4.2515377,32.022883 22.418536,80.803433 Z" /><path
     id="path4"
     style="fill:#c7a000;fill-opacity:1;stroke:#c7a000;stroke-width:0.402079;stroke-linecap:square;stroke-opacity:1"
     d="m 37.236696,60.913989 24.13667,21.509484 -36.61876,0.001 z" /><path
     id="path5"
     style="fill:#234165;fill-opacity:1;stroke:#234165;stroke-width:0.402079;stroke-linecap:square;stroke-opacity:1"
     d="m 92.539199,60.913997 -24.136693,21.509476 36.618764,0.001 z" /><path
     id="path6"
     style="fill:#234165;fill-opacity:1;stroke:#234165;stroke-width:0.402079;stroke-linecap:square;stroke-opacity:1"
     d="M 98.604745,23.69286 106.43401,44.631285 93.265839,56.339963 84.122956,39.468995 Z" /><path
     id="path7"
     style="fill:#c7a000;fill-opacity:1;stroke:#c7a000;stroke-width:0.402079;stroke-linecap:square;stroke-opacity:1"
     d="m 31.086456,23.69286 -7.82927,20.938425 13.16818,11.708678 9.14288,-16.870968 z" /><path
     id="path8"
     style="fill:#234165;fill-opacity:1;stroke:#234165;stroke-width:0.402079;stroke-linecap:square;stroke-opacity:1"
     d="m 63.342306,13.689021 -0.0265,66.655642 -24.54699,-22.040639 z" /><path
     id="path9"
     style="fill:#c7a000;fill-opacity:1;stroke:#c7a000;stroke-width:0.402079;stroke-linecap:square;stroke-opacity:1"
     d="m 66.475686,13.689023 0.0265,66.65564 24.547003,-22.040637 z" /><path
     style="font-weight:500;font-size:17.2146px;line-height:0px;font-family:Montserrat;-inkscape-font-specification:'Montserrat Medium';letter-spacing:-0.17147px;fill:#234165;stroke:#234165;stroke-width:0.506309;stroke-linecap:square"
     d="m 29.758982,114.64476 q -1.357568,0 -2.497255,-0.45972 -1.139686,-0.47739 -1.97769,-1.3261 -0.838005,-0.86639 -1.307288,-2.01569 -0.469283,-1.14928 -0.469283,-2.52843 0,-1.37916 0.469283,-2.52845 0.469283,-1.14929 1.307288,-1.998 0.854764,-0.8664 1.994451,-1.32611 1.139686,-0.4774 2.514014,-0.4774 1.391088,0 2.547534,0.4774 1.156447,0.4774 1.960931,1.4322 l -1.039126,1.09624 q -0.720684,-0.74261 -1.575448,-1.07856 -0.838005,-0.35363 -1.826851,-0.35363 -1.005606,0 -1.877131,0.35363 -0.854764,0.35362 -1.491648,0.99016 -0.620123,0.63652 -0.972085,1.5206 -0.335202,0.86639 -0.335202,1.89192 0,1.00784 0.335202,1.89191 0.351962,0.86638 0.972085,1.52059 0.636884,0.63654 1.491648,0.99017 0.854766,0.35362 1.860371,0.35362 0.938565,0 1.79333,-0.30057 0.871525,-0.31828 1.60897,-1.04322 l 0.955325,1.34379 q -0.871525,0.77799 -2.044732,1.18466 -1.156447,0.38899 -2.396693,0.38899 z m 4.441425,-1.57365 -1.60897,-0.22986 v -4.59716 h 1.60897 z m 6.754965,1.53828 q -1.424608,0 -2.514015,-0.61885 -1.072645,-0.61884 -1.676009,-1.69741 -0.586603,-1.07856 -0.586603,-2.47539 0,-1.39684 0.569843,-2.47541 0.586604,-1.07857 1.592209,-1.67973 1.022366,-0.61885 2.296133,-0.61885 1.290527,0 2.279372,0.60116 0.988847,0.60118 1.54193,1.69742 0.569843,1.07857 0.569843,2.52845 0,0.10609 -0.01677,0.24754 0,0.14145 -0.01675,0.26522 h -7.558804 v -1.22002 h 6.720798 l -0.653644,0.42436 q 0.01676,-0.90176 -0.351962,-1.60901 -0.368721,-0.70727 -1.022366,-1.09626 -0.636884,-0.40666 -1.491648,-0.40666 -0.838005,0 -1.491649,0.40666 -0.653643,0.38899 -1.022365,1.11393 -0.368722,0.70727 -0.368722,1.6267 v 0.2829 q 0,0.93711 0.402242,1.67974 0.419002,0.72494 1.156446,1.13161 0.737445,0.40667 1.69277,0.40667 0.787724,0 1.424608,-0.28291 0.653643,-0.28289 1.139687,-0.8487 l 0.888285,1.09625 q -0.603364,0.74261 -1.508409,1.1316 -0.888285,0.38899 -1.99445,0.38899 z m 9.185181,0 q -1.340808,0 -2.078251,-0.76029 -0.737445,-0.7603 -0.737445,-2.17482 v -8.59318 h 1.608969 v 8.52246 q 0,0.7603 0.351963,1.16698 0.368722,0.40666 1.039125,0.40666 0.754205,0 1.257008,-0.44203 l 0.502802,1.22001 q -0.368721,0.33595 -0.888285,0.49508 -0.502803,0.15913 -1.055886,0.15913 z m -4.324105,-8.0804 v -1.39683 h 5.664913 v 1.39683 z m 12.621647,7.97432 v -12.37699 h 4.575506 q 1.541928,0 2.631334,0.51275 1.089407,0.51276 1.67601,1.48525 0.586603,0.97247 0.586603,2.31626 0,1.34379 -0.586603,2.31627 -0.586603,0.9548 -1.67601,1.48524 -1.089406,0.51276 -2.631334,0.51276 H 59.3599 l 0.754204,-0.83103 v 4.57949 z m 1.676009,-4.40267 -0.754204,-0.88408 h 3.60342 q 1.60897,0 2.430214,-0.72494 0.838005,-0.72494 0.838005,-2.05104 0,-1.32611 -0.838005,-2.05104 Q 64.57229,103.6646 62.96332,103.6646 H 59.3599 l 0.754204,-0.88407 z m 9.704545,4.40267 v -9.37115 h 1.541929 v 2.54612 l -0.150842,-0.63653 q 0.368723,-0.97248 1.240248,-1.48524 0.871525,-0.51276 2.145291,-0.51276 v 1.64437 q -0.10056,-0.0177 -0.201121,-0.0177 -0.0838,0 -0.1676,0 -1.290528,0 -2.044732,0.81334 -0.754204,0.81335 -0.754204,2.35163 v 4.6679 z m 6.593768,0 v -9.37115 h 1.608968 v 9.37115 z m 0.804484,-11.17466 q -0.469283,0 -0.787725,-0.31826 -0.301681,-0.31828 -0.301681,-0.77799 0,-0.4774 0.301681,-0.79566 0.318442,-0.31827 0.787725,-0.31827 0.469282,0 0.770964,0.31827 0.318442,0.30059 0.318442,0.76029 0,0.47741 -0.301681,0.81336 -0.301682,0.31826 -0.787725,0.31826 z m 3.704629,11.17466 v -9.37115 h 1.541929 v 2.49308 l -0.251402,-0.63654 q 0.419003,-0.91943 1.290528,-1.43219 0.871525,-0.51276 2.027971,-0.51276 1.273768,0 2.195573,0.67189 0.921803,0.65422 1.206727,1.998 l -0.653645,-0.2829 q 0.402242,-1.07856 1.407852,-1.73277 1.0056,-0.65422 2.346409,-0.65422 1.072652,0 1.893891,0.44203 0.821249,0.44204 1.273768,1.34379 0.469283,0.90175 0.469283,2.2809 v 5.39284 h -1.608967 v -5.19834 q 0,-1.36147 -0.603368,-2.05104 -0.603358,-0.68958 -1.692765,-0.68958 -0.804484,0 -1.407851,0.35363 -0.603358,0.35362 -0.938568,1.0432 -0.318435,0.68958 -0.318435,1.7151 v 4.82703 h -1.608973 v -5.19834 q 0,-1.36147 -0.603363,-2.05104 -0.586603,-0.68958 -1.69277,-0.68958 -0.787724,0 -1.391088,0.35363 -0.603363,0.35362 -0.938565,1.0432 -0.335201,0.68958 -0.335201,1.7151 v 4.82703 z m 21.50385,0.10608 q -1.42462,0 -2.514015,-0.61885 -1.07265,-0.61884 -1.67601,-1.69741 -0.5866,-1.07856 -0.5866,-2.47539 0,-1.39684 0.56984,-2.47541 0.5866,-1.07857 1.59221,-1.67973 1.022355,-0.61885 2.296125,-0.61885 1.29053,0 2.27937,0.60116 0.98885,0.60118 1.54193,1.69742 0.56984,1.07857 0.56984,2.52845 0,0.10609 -0.0168,0.24754 0,0.14145 -0.0167,0.26522 h -7.558785 v -1.22002 h 6.720785 l -0.65363,0.42436 q 0.0167,-0.90176 -0.35197,-1.60901 -0.36872,-0.70727 -1.02236,-1.09626 -0.63689,-0.40666 -1.49165,-0.40666 -0.838,0 -1.49165,0.40666 -0.653635,0.38899 -1.022355,1.11393 -0.36872,0.70727 -0.36872,1.6267 v 0.2829 q 0,0.93711 0.40224,1.67974 0.418995,0.72494 1.156445,1.13161 0.73744,0.40667 1.69276,0.40667 0.78773,0 1.42461,-0.28291 0.65364,-0.28289 1.13968,-0.8487 l 0.88829,1.09625 q -0.60337,0.74261 -1.50841,1.1316 -0.88828,0.38899 -1.99444,0.38899 z"
     id="text11"
     aria-label="Get Prime" /></svg>
